<mxfile host="app.diagrams.net" modified="2023-05-28T16:06:58.069Z" agent="Mozilla/5.0 (Windows NT 10.0; Win64; x64) AppleWebKit/537.36 (KHTML, like Gecko) Chrome/113.0.0.0 Safari/537.36 Edg/113.0.1774.50" etag="xM2igxSSECtlYzaRqOJI" version="21.3.5" type="device">
  <diagram name="Página-1" id="J4K7iichQjgb96UlARjg">
    <mxGraphModel dx="1766" dy="773" grid="1" gridSize="10" guides="1" tooltips="1" connect="1" arrows="1" fold="1" page="1" pageScale="1" pageWidth="827" pageHeight="1169" math="0" shadow="0">
      <root>
        <mxCell id="0" />
        <mxCell id="1" parent="0" />
        <mxCell id="LOVSOSI9yWZroj-ZfK8c-1" value="Usuário" style="shape=umlActor;verticalLabelPosition=bottom;verticalAlign=top;html=1;outlineConnect=0;" vertex="1" parent="1">
          <mxGeometry x="40" y="630" width="30" height="60" as="geometry" />
        </mxCell>
        <mxCell id="LOVSOSI9yWZroj-ZfK8c-4" value="Ver Catálogo" style="ellipse;whiteSpace=wrap;html=1;verticalAlign=top;align=center;strokeColor=#99FFFF;fillColor=#003333;" vertex="1" parent="1">
          <mxGeometry x="220" y="400" width="120" height="40" as="geometry" />
        </mxCell>
        <mxCell id="LOVSOSI9yWZroj-ZfK8c-57" value="" style="edgeStyle=orthogonalEdgeStyle;rounded=0;orthogonalLoop=1;jettySize=auto;html=1;fillColor=#003300;" edge="1" parent="1" source="LOVSOSI9yWZroj-ZfK8c-6" target="LOVSOSI9yWZroj-ZfK8c-55">
          <mxGeometry relative="1" as="geometry" />
        </mxCell>
        <mxCell id="LOVSOSI9yWZroj-ZfK8c-6" value="Ver Histórico" style="ellipse;whiteSpace=wrap;html=1;verticalAlign=top;align=center;fillColor=#003300;" vertex="1" parent="1">
          <mxGeometry x="220" y="640" width="120" height="40" as="geometry" />
        </mxCell>
        <mxCell id="LOVSOSI9yWZroj-ZfK8c-7" value="Ver Carrinho" style="ellipse;whiteSpace=wrap;html=1;verticalAlign=top;align=center;fillColor=#330033;" vertex="1" parent="1">
          <mxGeometry x="220" y="860" width="120" height="40" as="geometry" />
        </mxCell>
        <mxCell id="LOVSOSI9yWZroj-ZfK8c-8" value="Sair" style="ellipse;whiteSpace=wrap;html=1;verticalAlign=top;align=center;fillColor=#330000;" vertex="1" parent="1">
          <mxGeometry x="220" y="1040" width="120" height="40" as="geometry" />
        </mxCell>
        <mxCell id="LOVSOSI9yWZroj-ZfK8c-10" value="" style="endArrow=classic;html=1;rounded=0;entryX=0;entryY=0.5;entryDx=0;entryDy=0;" edge="1" parent="1" source="LOVSOSI9yWZroj-ZfK8c-1" target="LOVSOSI9yWZroj-ZfK8c-4">
          <mxGeometry width="50" height="50" relative="1" as="geometry">
            <mxPoint x="370" y="800" as="sourcePoint" />
            <mxPoint x="420" y="750" as="targetPoint" />
          </mxGeometry>
        </mxCell>
        <mxCell id="LOVSOSI9yWZroj-ZfK8c-11" value="" style="endArrow=classic;html=1;rounded=0;entryX=0;entryY=0.5;entryDx=0;entryDy=0;" edge="1" parent="1" source="LOVSOSI9yWZroj-ZfK8c-1" target="LOVSOSI9yWZroj-ZfK8c-6">
          <mxGeometry width="50" height="50" relative="1" as="geometry">
            <mxPoint x="170" y="654" as="sourcePoint" />
            <mxPoint x="230" y="590" as="targetPoint" />
          </mxGeometry>
        </mxCell>
        <mxCell id="LOVSOSI9yWZroj-ZfK8c-12" value="" style="endArrow=classic;html=1;rounded=0;entryX=0;entryY=0.5;entryDx=0;entryDy=0;" edge="1" parent="1" source="LOVSOSI9yWZroj-ZfK8c-1" target="LOVSOSI9yWZroj-ZfK8c-7">
          <mxGeometry width="50" height="50" relative="1" as="geometry">
            <mxPoint x="170" y="666" as="sourcePoint" />
            <mxPoint x="230" y="650" as="targetPoint" />
          </mxGeometry>
        </mxCell>
        <mxCell id="LOVSOSI9yWZroj-ZfK8c-13" value="" style="endArrow=classic;html=1;rounded=0;entryX=0.053;entryY=0.115;entryDx=0;entryDy=0;entryPerimeter=0;" edge="1" parent="1" source="LOVSOSI9yWZroj-ZfK8c-1" target="LOVSOSI9yWZroj-ZfK8c-8">
          <mxGeometry width="50" height="50" relative="1" as="geometry">
            <mxPoint x="170" y="678" as="sourcePoint" />
            <mxPoint x="230" y="710" as="targetPoint" />
          </mxGeometry>
        </mxCell>
        <mxCell id="LOVSOSI9yWZroj-ZfK8c-14" value="Visualizar&lt;br&gt;Sugestões" style="ellipse;whiteSpace=wrap;html=1;verticalAlign=top;align=center;fillColor=#003333;" vertex="1" parent="1">
          <mxGeometry x="410" y="220" width="120" height="40" as="geometry" />
        </mxCell>
        <mxCell id="LOVSOSI9yWZroj-ZfK8c-15" value="Pesquisar por&lt;br&gt;Texto" style="ellipse;whiteSpace=wrap;html=1;verticalAlign=top;align=center;fillColor=#003333;" vertex="1" parent="1">
          <mxGeometry x="410" y="280" width="120" height="40" as="geometry" />
        </mxCell>
        <mxCell id="LOVSOSI9yWZroj-ZfK8c-16" value="Pesquisar por&amp;nbsp;&lt;br&gt;Tipo" style="ellipse;whiteSpace=wrap;html=1;verticalAlign=top;align=center;fillColor=#003333;" vertex="1" parent="1">
          <mxGeometry x="410" y="400" width="120" height="40" as="geometry" />
        </mxCell>
        <mxCell id="LOVSOSI9yWZroj-ZfK8c-17" value="Ver Carrinho" style="ellipse;whiteSpace=wrap;html=1;verticalAlign=top;align=center;fillColor=#003333;" vertex="1" parent="1">
          <mxGeometry x="410" y="520" width="120" height="40" as="geometry" />
        </mxCell>
        <mxCell id="LOVSOSI9yWZroj-ZfK8c-42" style="edgeStyle=orthogonalEdgeStyle;rounded=0;orthogonalLoop=1;jettySize=auto;html=1;entryX=0.5;entryY=1;entryDx=0;entryDy=0;" edge="1" parent="1" source="LOVSOSI9yWZroj-ZfK8c-19" target="LOVSOSI9yWZroj-ZfK8c-4">
          <mxGeometry relative="1" as="geometry">
            <Array as="points">
              <mxPoint x="280" y="600" />
            </Array>
          </mxGeometry>
        </mxCell>
        <mxCell id="LOVSOSI9yWZroj-ZfK8c-19" value="Voltar" style="ellipse;whiteSpace=wrap;html=1;verticalAlign=top;align=center;fillColor=#003333;" vertex="1" parent="1">
          <mxGeometry x="410" y="580" width="120" height="40" as="geometry" />
        </mxCell>
        <mxCell id="LOVSOSI9yWZroj-ZfK8c-66" style="edgeStyle=orthogonalEdgeStyle;rounded=0;orthogonalLoop=1;jettySize=auto;html=1;" edge="1" parent="1" source="LOVSOSI9yWZroj-ZfK8c-20" target="LOVSOSI9yWZroj-ZfK8c-70">
          <mxGeometry relative="1" as="geometry">
            <Array as="points">
              <mxPoint x="980" y="80" />
              <mxPoint x="980" y="400" />
            </Array>
          </mxGeometry>
        </mxCell>
        <mxCell id="LOVSOSI9yWZroj-ZfK8c-74" style="edgeStyle=orthogonalEdgeStyle;rounded=0;orthogonalLoop=1;jettySize=auto;html=1;entryX=0;entryY=0.5;entryDx=0;entryDy=0;" edge="1" parent="1" source="LOVSOSI9yWZroj-ZfK8c-20" target="LOVSOSI9yWZroj-ZfK8c-71">
          <mxGeometry relative="1" as="geometry">
            <Array as="points">
              <mxPoint x="650" y="110" />
              <mxPoint x="940" y="110" />
              <mxPoint x="940" y="460" />
            </Array>
          </mxGeometry>
        </mxCell>
        <mxCell id="LOVSOSI9yWZroj-ZfK8c-20" value="Escolher&lt;br&gt;Sugestão" style="ellipse;whiteSpace=wrap;html=1;verticalAlign=top;align=center;fillColor=#003333;" vertex="1" parent="1">
          <mxGeometry x="590" y="60" width="120" height="40" as="geometry" />
        </mxCell>
        <mxCell id="LOVSOSI9yWZroj-ZfK8c-54" style="edgeStyle=orthogonalEdgeStyle;rounded=0;orthogonalLoop=1;jettySize=auto;html=1;fillColor=#003333;" edge="1" parent="1" source="LOVSOSI9yWZroj-ZfK8c-21" target="LOVSOSI9yWZroj-ZfK8c-14">
          <mxGeometry relative="1" as="geometry">
            <Array as="points">
              <mxPoint x="650" y="190" />
              <mxPoint x="570" y="190" />
              <mxPoint x="570" y="240" />
            </Array>
          </mxGeometry>
        </mxCell>
        <mxCell id="LOVSOSI9yWZroj-ZfK8c-21" value="Voltar" style="ellipse;whiteSpace=wrap;html=1;verticalAlign=top;align=center;fillColor=#003333;" vertex="1" parent="1">
          <mxGeometry x="590" y="120" width="120" height="40" as="geometry" />
        </mxCell>
        <mxCell id="LOVSOSI9yWZroj-ZfK8c-67" style="edgeStyle=orthogonalEdgeStyle;rounded=0;orthogonalLoop=1;jettySize=auto;html=1;" edge="1" parent="1" source="LOVSOSI9yWZroj-ZfK8c-22">
          <mxGeometry relative="1" as="geometry">
            <mxPoint x="980" y="240" as="targetPoint" />
            <Array as="points">
              <mxPoint x="980" y="240" />
            </Array>
          </mxGeometry>
        </mxCell>
        <mxCell id="LOVSOSI9yWZroj-ZfK8c-75" style="edgeStyle=orthogonalEdgeStyle;rounded=0;orthogonalLoop=1;jettySize=auto;html=1;" edge="1" parent="1" source="LOVSOSI9yWZroj-ZfK8c-22">
          <mxGeometry relative="1" as="geometry">
            <mxPoint x="940" y="270" as="targetPoint" />
            <Array as="points">
              <mxPoint x="650" y="270" />
              <mxPoint x="940" y="270" />
            </Array>
          </mxGeometry>
        </mxCell>
        <mxCell id="LOVSOSI9yWZroj-ZfK8c-22" value="Escolher&lt;br&gt;Item" style="ellipse;whiteSpace=wrap;html=1;verticalAlign=top;align=center;fillColor=#003333;" vertex="1" parent="1">
          <mxGeometry x="590" y="220" width="120" height="40" as="geometry" />
        </mxCell>
        <mxCell id="LOVSOSI9yWZroj-ZfK8c-23" value="Refazer&lt;br&gt;Pesquisar" style="ellipse;whiteSpace=wrap;html=1;verticalAlign=top;align=center;fillColor=#003333;" vertex="1" parent="1">
          <mxGeometry x="590" y="280" width="120" height="40" as="geometry" />
        </mxCell>
        <mxCell id="LOVSOSI9yWZroj-ZfK8c-51" style="edgeStyle=orthogonalEdgeStyle;rounded=0;orthogonalLoop=1;jettySize=auto;html=1;fillColor=#003333;" edge="1" parent="1" source="LOVSOSI9yWZroj-ZfK8c-24" target="LOVSOSI9yWZroj-ZfK8c-15">
          <mxGeometry relative="1" as="geometry" />
        </mxCell>
        <mxCell id="LOVSOSI9yWZroj-ZfK8c-24" value="Voltar" style="ellipse;whiteSpace=wrap;html=1;verticalAlign=top;align=center;fillColor=#003333;" vertex="1" parent="1">
          <mxGeometry x="590" y="340" width="120" height="40" as="geometry" />
        </mxCell>
        <mxCell id="LOVSOSI9yWZroj-ZfK8c-25" value="Selecionar&lt;br&gt;Tipo" style="ellipse;whiteSpace=wrap;html=1;verticalAlign=top;align=center;fillColor=#003333;" vertex="1" parent="1">
          <mxGeometry x="590" y="400" width="120" height="40" as="geometry" />
        </mxCell>
        <mxCell id="LOVSOSI9yWZroj-ZfK8c-43" style="edgeStyle=orthogonalEdgeStyle;rounded=0;orthogonalLoop=1;jettySize=auto;html=1;fillColor=#003333;" edge="1" parent="1" source="LOVSOSI9yWZroj-ZfK8c-26" target="LOVSOSI9yWZroj-ZfK8c-16">
          <mxGeometry relative="1" as="geometry">
            <Array as="points">
              <mxPoint x="470" y="500" />
            </Array>
          </mxGeometry>
        </mxCell>
        <mxCell id="LOVSOSI9yWZroj-ZfK8c-26" value="Voltar" style="ellipse;whiteSpace=wrap;html=1;verticalAlign=top;align=center;fillColor=#003333;" vertex="1" parent="1">
          <mxGeometry x="590" y="480" width="120" height="40" as="geometry" />
        </mxCell>
        <mxCell id="LOVSOSI9yWZroj-ZfK8c-68" style="edgeStyle=orthogonalEdgeStyle;rounded=0;orthogonalLoop=1;jettySize=auto;html=1;exitX=0.5;exitY=0;exitDx=0;exitDy=0;" edge="1" parent="1" source="LOVSOSI9yWZroj-ZfK8c-29">
          <mxGeometry relative="1" as="geometry">
            <mxPoint x="980" y="320" as="targetPoint" />
            <Array as="points">
              <mxPoint x="810" y="320" />
              <mxPoint x="980" y="320" />
            </Array>
          </mxGeometry>
        </mxCell>
        <mxCell id="LOVSOSI9yWZroj-ZfK8c-76" style="edgeStyle=orthogonalEdgeStyle;rounded=0;orthogonalLoop=1;jettySize=auto;html=1;" edge="1" parent="1" source="LOVSOSI9yWZroj-ZfK8c-29">
          <mxGeometry relative="1" as="geometry">
            <mxPoint x="940" y="400" as="targetPoint" />
            <Array as="points">
              <mxPoint x="940" y="400" />
            </Array>
          </mxGeometry>
        </mxCell>
        <mxCell id="LOVSOSI9yWZroj-ZfK8c-29" value="Selecionar&lt;br&gt;Item" style="ellipse;whiteSpace=wrap;html=1;verticalAlign=top;align=center;fillColor=#003333;" vertex="1" parent="1">
          <mxGeometry x="750" y="380" width="120" height="40" as="geometry" />
        </mxCell>
        <mxCell id="LOVSOSI9yWZroj-ZfK8c-47" style="edgeStyle=orthogonalEdgeStyle;rounded=0;orthogonalLoop=1;jettySize=auto;html=1;fillColor=#003333;" edge="1" parent="1" source="LOVSOSI9yWZroj-ZfK8c-30" target="LOVSOSI9yWZroj-ZfK8c-25">
          <mxGeometry relative="1" as="geometry">
            <Array as="points">
              <mxPoint x="650" y="460" />
            </Array>
          </mxGeometry>
        </mxCell>
        <mxCell id="LOVSOSI9yWZroj-ZfK8c-30" value="Voltar" style="ellipse;whiteSpace=wrap;html=1;verticalAlign=top;align=center;fillColor=#003333;" vertex="1" parent="1">
          <mxGeometry x="750" y="440" width="120" height="40" as="geometry" />
        </mxCell>
        <mxCell id="LOVSOSI9yWZroj-ZfK8c-31" value="" style="endArrow=classic;html=1;rounded=0;entryX=0;entryY=0.5;entryDx=0;entryDy=0;" edge="1" parent="1" source="LOVSOSI9yWZroj-ZfK8c-4" target="LOVSOSI9yWZroj-ZfK8c-14">
          <mxGeometry width="50" height="50" relative="1" as="geometry">
            <mxPoint x="120" y="641" as="sourcePoint" />
            <mxPoint x="230" y="430" as="targetPoint" />
          </mxGeometry>
        </mxCell>
        <mxCell id="LOVSOSI9yWZroj-ZfK8c-32" value="" style="endArrow=classic;html=1;rounded=0;entryX=0;entryY=0.5;entryDx=0;entryDy=0;" edge="1" parent="1" source="LOVSOSI9yWZroj-ZfK8c-4" target="LOVSOSI9yWZroj-ZfK8c-15">
          <mxGeometry width="50" height="50" relative="1" as="geometry">
            <mxPoint x="304" y="411" as="sourcePoint" />
            <mxPoint x="420" y="250" as="targetPoint" />
          </mxGeometry>
        </mxCell>
        <mxCell id="LOVSOSI9yWZroj-ZfK8c-33" value="" style="endArrow=classic;html=1;rounded=0;entryX=0;entryY=0.5;entryDx=0;entryDy=0;" edge="1" parent="1" source="LOVSOSI9yWZroj-ZfK8c-4" target="LOVSOSI9yWZroj-ZfK8c-16">
          <mxGeometry width="50" height="50" relative="1" as="geometry">
            <mxPoint x="310" y="411" as="sourcePoint" />
            <mxPoint x="420" y="310" as="targetPoint" />
          </mxGeometry>
        </mxCell>
        <mxCell id="LOVSOSI9yWZroj-ZfK8c-34" value="" style="endArrow=classic;html=1;rounded=0;" edge="1" parent="1" source="LOVSOSI9yWZroj-ZfK8c-4" target="LOVSOSI9yWZroj-ZfK8c-17">
          <mxGeometry width="50" height="50" relative="1" as="geometry">
            <mxPoint x="325" y="414" as="sourcePoint" />
            <mxPoint x="420" y="370" as="targetPoint" />
          </mxGeometry>
        </mxCell>
        <mxCell id="LOVSOSI9yWZroj-ZfK8c-35" value="" style="endArrow=classic;html=1;rounded=0;entryX=0;entryY=0;entryDx=0;entryDy=0;" edge="1" parent="1" source="LOVSOSI9yWZroj-ZfK8c-4" target="LOVSOSI9yWZroj-ZfK8c-19">
          <mxGeometry width="50" height="50" relative="1" as="geometry">
            <mxPoint x="350" y="430" as="sourcePoint" />
            <mxPoint x="420" y="430" as="targetPoint" />
          </mxGeometry>
        </mxCell>
        <mxCell id="LOVSOSI9yWZroj-ZfK8c-36" value="" style="endArrow=classic;html=1;rounded=0;entryX=0;entryY=0.5;entryDx=0;entryDy=0;fillColor=#003333;" edge="1" parent="1" source="LOVSOSI9yWZroj-ZfK8c-14" target="LOVSOSI9yWZroj-ZfK8c-20">
          <mxGeometry width="50" height="50" relative="1" as="geometry">
            <mxPoint x="304" y="411" as="sourcePoint" />
            <mxPoint x="420" y="250" as="targetPoint" />
          </mxGeometry>
        </mxCell>
        <mxCell id="LOVSOSI9yWZroj-ZfK8c-37" value="" style="endArrow=classic;html=1;rounded=0;entryX=0;entryY=0.5;entryDx=0;entryDy=0;fillColor=#003333;" edge="1" parent="1" source="LOVSOSI9yWZroj-ZfK8c-14" target="LOVSOSI9yWZroj-ZfK8c-21">
          <mxGeometry width="50" height="50" relative="1" as="geometry">
            <mxPoint x="528" y="238" as="sourcePoint" />
            <mxPoint x="600" y="220" as="targetPoint" />
          </mxGeometry>
        </mxCell>
        <mxCell id="LOVSOSI9yWZroj-ZfK8c-38" value="" style="endArrow=classic;html=1;rounded=0;entryX=0;entryY=0.5;entryDx=0;entryDy=0;fillColor=#003333;" edge="1" parent="1" source="LOVSOSI9yWZroj-ZfK8c-15" target="LOVSOSI9yWZroj-ZfK8c-22">
          <mxGeometry width="50" height="50" relative="1" as="geometry">
            <mxPoint x="513" y="233" as="sourcePoint" />
            <mxPoint x="600" y="190" as="targetPoint" />
          </mxGeometry>
        </mxCell>
        <mxCell id="LOVSOSI9yWZroj-ZfK8c-39" value="" style="endArrow=classic;html=1;rounded=0;fillColor=#003333;" edge="1" parent="1" source="LOVSOSI9yWZroj-ZfK8c-15" target="LOVSOSI9yWZroj-ZfK8c-23">
          <mxGeometry width="50" height="50" relative="1" as="geometry">
            <mxPoint x="513" y="293" as="sourcePoint" />
            <mxPoint x="600" y="250" as="targetPoint" />
          </mxGeometry>
        </mxCell>
        <mxCell id="LOVSOSI9yWZroj-ZfK8c-40" value="" style="endArrow=classic;html=1;rounded=0;entryX=0;entryY=0;entryDx=0;entryDy=0;fillColor=#003333;" edge="1" parent="1" source="LOVSOSI9yWZroj-ZfK8c-15" target="LOVSOSI9yWZroj-ZfK8c-24">
          <mxGeometry width="50" height="50" relative="1" as="geometry">
            <mxPoint x="540" y="310" as="sourcePoint" />
            <mxPoint x="600" y="310" as="targetPoint" />
          </mxGeometry>
        </mxCell>
        <mxCell id="LOVSOSI9yWZroj-ZfK8c-44" value="" style="endArrow=classic;html=1;rounded=0;fillColor=#003333;" edge="1" parent="1" source="LOVSOSI9yWZroj-ZfK8c-16" target="LOVSOSI9yWZroj-ZfK8c-25">
          <mxGeometry width="50" height="50" relative="1" as="geometry">
            <mxPoint x="523" y="324" as="sourcePoint" />
            <mxPoint x="618" y="356" as="targetPoint" />
          </mxGeometry>
        </mxCell>
        <mxCell id="LOVSOSI9yWZroj-ZfK8c-46" value="" style="endArrow=classic;html=1;rounded=0;entryX=0.03;entryY=0.34;entryDx=0;entryDy=0;entryPerimeter=0;fillColor=#003333;" edge="1" parent="1" source="LOVSOSI9yWZroj-ZfK8c-25" target="LOVSOSI9yWZroj-ZfK8c-29">
          <mxGeometry width="50" height="50" relative="1" as="geometry">
            <mxPoint x="523" y="384" as="sourcePoint" />
            <mxPoint x="618" y="416" as="targetPoint" />
          </mxGeometry>
        </mxCell>
        <mxCell id="LOVSOSI9yWZroj-ZfK8c-48" value="" style="endArrow=classic;html=1;rounded=0;fillColor=#003333;" edge="1" parent="1" target="LOVSOSI9yWZroj-ZfK8c-30">
          <mxGeometry width="50" height="50" relative="1" as="geometry">
            <mxPoint x="710" y="420" as="sourcePoint" />
            <mxPoint x="764" y="404" as="targetPoint" />
          </mxGeometry>
        </mxCell>
        <mxCell id="LOVSOSI9yWZroj-ZfK8c-52" value="" style="endArrow=classic;html=1;rounded=0;fillColor=#003333;" edge="1" parent="1" source="LOVSOSI9yWZroj-ZfK8c-16" target="LOVSOSI9yWZroj-ZfK8c-26">
          <mxGeometry width="50" height="50" relative="1" as="geometry">
            <mxPoint x="531" y="441" as="sourcePoint" />
            <mxPoint x="610" y="459" as="targetPoint" />
          </mxGeometry>
        </mxCell>
        <mxCell id="LOVSOSI9yWZroj-ZfK8c-62" style="edgeStyle=orthogonalEdgeStyle;rounded=0;orthogonalLoop=1;jettySize=auto;html=1;fillColor=#003300;" edge="1" parent="1" source="LOVSOSI9yWZroj-ZfK8c-55" target="LOVSOSI9yWZroj-ZfK8c-60">
          <mxGeometry relative="1" as="geometry" />
        </mxCell>
        <mxCell id="LOVSOSI9yWZroj-ZfK8c-55" value="Detalhar&lt;br&gt;Compra" style="ellipse;whiteSpace=wrap;html=1;verticalAlign=top;align=center;fillColor=#003300;" vertex="1" parent="1">
          <mxGeometry x="410" y="640" width="120" height="40" as="geometry" />
        </mxCell>
        <mxCell id="LOVSOSI9yWZroj-ZfK8c-59" style="edgeStyle=orthogonalEdgeStyle;rounded=0;orthogonalLoop=1;jettySize=auto;html=1;fillColor=#003300;" edge="1" parent="1" source="LOVSOSI9yWZroj-ZfK8c-56" target="LOVSOSI9yWZroj-ZfK8c-6">
          <mxGeometry relative="1" as="geometry">
            <Array as="points">
              <mxPoint x="360" y="760" />
              <mxPoint x="360" y="720" />
              <mxPoint x="280" y="720" />
            </Array>
          </mxGeometry>
        </mxCell>
        <mxCell id="LOVSOSI9yWZroj-ZfK8c-56" value="Voltar" style="ellipse;whiteSpace=wrap;html=1;verticalAlign=top;align=center;fillColor=#003300;" vertex="1" parent="1">
          <mxGeometry x="410" y="740" width="120" height="40" as="geometry" />
        </mxCell>
        <mxCell id="LOVSOSI9yWZroj-ZfK8c-58" value="" style="endArrow=classic;html=1;rounded=0;fillColor=#003300;" edge="1" parent="1" source="LOVSOSI9yWZroj-ZfK8c-6" target="LOVSOSI9yWZroj-ZfK8c-56">
          <mxGeometry width="50" height="50" relative="1" as="geometry">
            <mxPoint x="120" y="670" as="sourcePoint" />
            <mxPoint x="230" y="670" as="targetPoint" />
          </mxGeometry>
        </mxCell>
        <mxCell id="LOVSOSI9yWZroj-ZfK8c-103" style="edgeStyle=orthogonalEdgeStyle;rounded=0;orthogonalLoop=1;jettySize=auto;html=1;" edge="1" parent="1" source="LOVSOSI9yWZroj-ZfK8c-60">
          <mxGeometry relative="1" as="geometry">
            <mxPoint x="740" y="800" as="targetPoint" />
          </mxGeometry>
        </mxCell>
        <mxCell id="LOVSOSI9yWZroj-ZfK8c-60" value="Refazer&lt;br&gt;Compra" style="ellipse;whiteSpace=wrap;html=1;verticalAlign=top;align=center;fillColor=#003300;" vertex="1" parent="1">
          <mxGeometry x="590" y="640" width="120" height="40" as="geometry" />
        </mxCell>
        <mxCell id="LOVSOSI9yWZroj-ZfK8c-63" style="edgeStyle=orthogonalEdgeStyle;rounded=0;orthogonalLoop=1;jettySize=auto;html=1;entryX=0.5;entryY=1;entryDx=0;entryDy=0;fillColor=#003300;" edge="1" parent="1" source="LOVSOSI9yWZroj-ZfK8c-61" target="LOVSOSI9yWZroj-ZfK8c-55">
          <mxGeometry relative="1" as="geometry" />
        </mxCell>
        <mxCell id="LOVSOSI9yWZroj-ZfK8c-61" value="Voltar" style="ellipse;whiteSpace=wrap;html=1;verticalAlign=top;align=center;fillColor=#003300;" vertex="1" parent="1">
          <mxGeometry x="590" y="700" width="120" height="40" as="geometry" />
        </mxCell>
        <mxCell id="LOVSOSI9yWZroj-ZfK8c-77" style="edgeStyle=orthogonalEdgeStyle;rounded=0;orthogonalLoop=1;jettySize=auto;html=1;fillColor=#333300;" edge="1" parent="1" source="LOVSOSI9yWZroj-ZfK8c-70" target="LOVSOSI9yWZroj-ZfK8c-72">
          <mxGeometry relative="1" as="geometry" />
        </mxCell>
        <mxCell id="LOVSOSI9yWZroj-ZfK8c-70" value="Sel. Quantidade&lt;br&gt;Ver Total" style="ellipse;whiteSpace=wrap;html=1;verticalAlign=top;align=center;fillColor=#333300;" vertex="1" parent="1">
          <mxGeometry x="1040" y="380" width="120" height="40" as="geometry" />
        </mxCell>
        <mxCell id="LOVSOSI9yWZroj-ZfK8c-71" value="Voltar" style="ellipse;whiteSpace=wrap;html=1;verticalAlign=top;align=center;fillColor=#333300;" vertex="1" parent="1">
          <mxGeometry x="1040" y="440" width="120" height="40" as="geometry" />
        </mxCell>
        <mxCell id="LOVSOSI9yWZroj-ZfK8c-73" style="edgeStyle=orthogonalEdgeStyle;rounded=0;orthogonalLoop=1;jettySize=auto;html=1;entryX=0.5;entryY=0;entryDx=0;entryDy=0;" edge="1" parent="1" source="LOVSOSI9yWZroj-ZfK8c-72" target="LOVSOSI9yWZroj-ZfK8c-7">
          <mxGeometry relative="1" as="geometry">
            <Array as="points">
              <mxPoint x="1260" y="800" />
              <mxPoint x="280" y="800" />
            </Array>
          </mxGeometry>
        </mxCell>
        <mxCell id="LOVSOSI9yWZroj-ZfK8c-72" value="Adicionar&lt;br&gt;Carrinho" style="ellipse;whiteSpace=wrap;html=1;verticalAlign=top;align=center;fillColor=#333300;" vertex="1" parent="1">
          <mxGeometry x="1201" y="380" width="120" height="40" as="geometry" />
        </mxCell>
        <mxCell id="LOVSOSI9yWZroj-ZfK8c-78" value="Limpar&lt;br&gt;Lista" style="ellipse;whiteSpace=wrap;html=1;verticalAlign=top;align=center;fillColor=#330033;" vertex="1" parent="1">
          <mxGeometry x="410" y="860" width="120" height="40" as="geometry" />
        </mxCell>
        <mxCell id="LOVSOSI9yWZroj-ZfK8c-107" style="edgeStyle=orthogonalEdgeStyle;rounded=0;orthogonalLoop=1;jettySize=auto;html=1;entryX=0;entryY=0;entryDx=0;entryDy=0;" edge="1" parent="1" source="LOVSOSI9yWZroj-ZfK8c-79" target="LOVSOSI9yWZroj-ZfK8c-105">
          <mxGeometry relative="1" as="geometry" />
        </mxCell>
        <mxCell id="LOVSOSI9yWZroj-ZfK8c-79" value="Finalizar&lt;br&gt;Compra" style="ellipse;whiteSpace=wrap;html=1;verticalAlign=top;align=center;fillColor=#330033;" vertex="1" parent="1">
          <mxGeometry x="410" y="980" width="120" height="40" as="geometry" />
        </mxCell>
        <mxCell id="LOVSOSI9yWZroj-ZfK8c-93" style="edgeStyle=orthogonalEdgeStyle;rounded=0;orthogonalLoop=1;jettySize=auto;html=1;" edge="1" parent="1" source="LOVSOSI9yWZroj-ZfK8c-80" target="LOVSOSI9yWZroj-ZfK8c-92">
          <mxGeometry relative="1" as="geometry" />
        </mxCell>
        <mxCell id="LOVSOSI9yWZroj-ZfK8c-80" value="Editar&lt;br&gt;Item" style="ellipse;whiteSpace=wrap;html=1;verticalAlign=top;align=center;fillColor=#330033;" vertex="1" parent="1">
          <mxGeometry x="410" y="920" width="120" height="40" as="geometry" />
        </mxCell>
        <mxCell id="LOVSOSI9yWZroj-ZfK8c-82" style="edgeStyle=orthogonalEdgeStyle;rounded=0;orthogonalLoop=1;jettySize=auto;html=1;entryX=0.5;entryY=1;entryDx=0;entryDy=0;" edge="1" parent="1" source="LOVSOSI9yWZroj-ZfK8c-81" target="LOVSOSI9yWZroj-ZfK8c-7">
          <mxGeometry relative="1" as="geometry">
            <Array as="points">
              <mxPoint x="360" y="1060" />
              <mxPoint x="360" y="1020" />
              <mxPoint x="280" y="1020" />
            </Array>
          </mxGeometry>
        </mxCell>
        <mxCell id="LOVSOSI9yWZroj-ZfK8c-81" value="Voltar" style="ellipse;whiteSpace=wrap;html=1;verticalAlign=top;align=center;fillColor=#330033;" vertex="1" parent="1">
          <mxGeometry x="410" y="1040" width="120" height="40" as="geometry" />
        </mxCell>
        <mxCell id="LOVSOSI9yWZroj-ZfK8c-83" value="" style="endArrow=classic;html=1;rounded=0;fillColor=#003300;entryX=0;entryY=0;entryDx=0;entryDy=0;" edge="1" parent="1" source="LOVSOSI9yWZroj-ZfK8c-7" target="LOVSOSI9yWZroj-ZfK8c-81">
          <mxGeometry width="50" height="50" relative="1" as="geometry">
            <mxPoint x="322" y="687" as="sourcePoint" />
            <mxPoint x="448" y="753" as="targetPoint" />
          </mxGeometry>
        </mxCell>
        <mxCell id="LOVSOSI9yWZroj-ZfK8c-85" value="" style="endArrow=classic;html=1;rounded=0;fillColor=#003300;entryX=0.071;entryY=0.193;entryDx=0;entryDy=0;entryPerimeter=0;" edge="1" parent="1" source="LOVSOSI9yWZroj-ZfK8c-7" target="LOVSOSI9yWZroj-ZfK8c-79">
          <mxGeometry width="50" height="50" relative="1" as="geometry">
            <mxPoint x="307" y="909" as="sourcePoint" />
            <mxPoint x="438" y="1056" as="targetPoint" />
          </mxGeometry>
        </mxCell>
        <mxCell id="LOVSOSI9yWZroj-ZfK8c-86" value="" style="endArrow=classic;html=1;rounded=0;fillColor=#003300;entryX=0;entryY=0;entryDx=0;entryDy=0;exitX=1;exitY=1;exitDx=0;exitDy=0;" edge="1" parent="1" source="LOVSOSI9yWZroj-ZfK8c-7" target="LOVSOSI9yWZroj-ZfK8c-80">
          <mxGeometry width="50" height="50" relative="1" as="geometry">
            <mxPoint x="330" y="880" as="sourcePoint" />
            <mxPoint x="448" y="1066" as="targetPoint" />
          </mxGeometry>
        </mxCell>
        <mxCell id="LOVSOSI9yWZroj-ZfK8c-87" value="" style="endArrow=classic;html=1;rounded=0;fillColor=#003300;entryX=0;entryY=0.5;entryDx=0;entryDy=0;exitX=1;exitY=0.5;exitDx=0;exitDy=0;" edge="1" parent="1" source="LOVSOSI9yWZroj-ZfK8c-7" target="LOVSOSI9yWZroj-ZfK8c-78">
          <mxGeometry width="50" height="50" relative="1" as="geometry">
            <mxPoint x="327" y="929" as="sourcePoint" />
            <mxPoint x="458" y="1076" as="targetPoint" />
          </mxGeometry>
        </mxCell>
        <mxCell id="LOVSOSI9yWZroj-ZfK8c-91" style="edgeStyle=orthogonalEdgeStyle;rounded=0;orthogonalLoop=1;jettySize=auto;html=1;" edge="1" parent="1" source="LOVSOSI9yWZroj-ZfK8c-88">
          <mxGeometry relative="1" as="geometry">
            <mxPoint x="280" y="830" as="targetPoint" />
            <Array as="points">
              <mxPoint x="650" y="830" />
              <mxPoint x="280" y="830" />
            </Array>
          </mxGeometry>
        </mxCell>
        <mxCell id="LOVSOSI9yWZroj-ZfK8c-88" value="Voltar" style="ellipse;whiteSpace=wrap;html=1;verticalAlign=top;align=center;fillColor=#330033;" vertex="1" parent="1">
          <mxGeometry x="590" y="860" width="120" height="40" as="geometry" />
        </mxCell>
        <mxCell id="LOVSOSI9yWZroj-ZfK8c-90" value="" style="endArrow=classic;html=1;rounded=0;fillColor=#003300;" edge="1" parent="1" source="LOVSOSI9yWZroj-ZfK8c-78" target="LOVSOSI9yWZroj-ZfK8c-88">
          <mxGeometry width="50" height="50" relative="1" as="geometry">
            <mxPoint x="350" y="890" as="sourcePoint" />
            <mxPoint x="420" y="890" as="targetPoint" />
          </mxGeometry>
        </mxCell>
        <mxCell id="LOVSOSI9yWZroj-ZfK8c-92" value="Selecionar&lt;br&gt;Item" style="ellipse;whiteSpace=wrap;html=1;verticalAlign=top;align=center;fillColor=#330033;" vertex="1" parent="1">
          <mxGeometry x="590" y="920" width="120" height="40" as="geometry" />
        </mxCell>
        <mxCell id="LOVSOSI9yWZroj-ZfK8c-102" style="edgeStyle=orthogonalEdgeStyle;rounded=0;orthogonalLoop=1;jettySize=auto;html=1;" edge="1" parent="1" source="LOVSOSI9yWZroj-ZfK8c-94">
          <mxGeometry relative="1" as="geometry">
            <mxPoint x="890" y="800" as="targetPoint" />
          </mxGeometry>
        </mxCell>
        <mxCell id="LOVSOSI9yWZroj-ZfK8c-94" value="Remover&lt;br&gt;Item" style="ellipse;whiteSpace=wrap;html=1;verticalAlign=top;align=center;fillColor=#330033;" vertex="1" parent="1">
          <mxGeometry x="750" y="920" width="120" height="40" as="geometry" />
        </mxCell>
        <mxCell id="LOVSOSI9yWZroj-ZfK8c-101" style="edgeStyle=orthogonalEdgeStyle;rounded=0;orthogonalLoop=1;jettySize=auto;html=1;" edge="1" parent="1" source="LOVSOSI9yWZroj-ZfK8c-95">
          <mxGeometry relative="1" as="geometry">
            <mxPoint x="890" y="800" as="targetPoint" />
          </mxGeometry>
        </mxCell>
        <mxCell id="LOVSOSI9yWZroj-ZfK8c-95" value="Alterar&lt;br&gt;Quantidade" style="ellipse;whiteSpace=wrap;html=1;verticalAlign=top;align=center;fillColor=#330033;" vertex="1" parent="1">
          <mxGeometry x="750" y="860" width="120" height="40" as="geometry" />
        </mxCell>
        <mxCell id="LOVSOSI9yWZroj-ZfK8c-104" style="edgeStyle=orthogonalEdgeStyle;rounded=0;orthogonalLoop=1;jettySize=auto;html=1;" edge="1" parent="1" source="LOVSOSI9yWZroj-ZfK8c-96" target="LOVSOSI9yWZroj-ZfK8c-92">
          <mxGeometry relative="1" as="geometry" />
        </mxCell>
        <mxCell id="LOVSOSI9yWZroj-ZfK8c-96" value="Voltar" style="ellipse;whiteSpace=wrap;html=1;verticalAlign=top;align=center;fillColor=#330033;" vertex="1" parent="1">
          <mxGeometry x="750" y="980" width="120" height="40" as="geometry" />
        </mxCell>
        <mxCell id="LOVSOSI9yWZroj-ZfK8c-98" value="" style="endArrow=classic;html=1;rounded=0;fillColor=#003300;" edge="1" parent="1" source="LOVSOSI9yWZroj-ZfK8c-92" target="LOVSOSI9yWZroj-ZfK8c-95">
          <mxGeometry width="50" height="50" relative="1" as="geometry">
            <mxPoint x="332" y="904" as="sourcePoint" />
            <mxPoint x="438" y="936" as="targetPoint" />
          </mxGeometry>
        </mxCell>
        <mxCell id="LOVSOSI9yWZroj-ZfK8c-99" value="" style="endArrow=classic;html=1;rounded=0;fillColor=#003300;" edge="1" parent="1" source="LOVSOSI9yWZroj-ZfK8c-92" target="LOVSOSI9yWZroj-ZfK8c-94">
          <mxGeometry width="50" height="50" relative="1" as="geometry">
            <mxPoint x="700" y="935" as="sourcePoint" />
            <mxPoint x="780" y="905" as="targetPoint" />
          </mxGeometry>
        </mxCell>
        <mxCell id="LOVSOSI9yWZroj-ZfK8c-100" value="" style="endArrow=classic;html=1;rounded=0;fillColor=#003300;" edge="1" parent="1" source="LOVSOSI9yWZroj-ZfK8c-92" target="LOVSOSI9yWZroj-ZfK8c-96">
          <mxGeometry width="50" height="50" relative="1" as="geometry">
            <mxPoint x="720" y="950" as="sourcePoint" />
            <mxPoint x="760" y="950" as="targetPoint" />
          </mxGeometry>
        </mxCell>
        <mxCell id="LOVSOSI9yWZroj-ZfK8c-108" style="edgeStyle=orthogonalEdgeStyle;rounded=0;orthogonalLoop=1;jettySize=auto;html=1;entryX=0.5;entryY=1;entryDx=0;entryDy=0;" edge="1" parent="1" source="LOVSOSI9yWZroj-ZfK8c-105" target="LOVSOSI9yWZroj-ZfK8c-8">
          <mxGeometry relative="1" as="geometry">
            <Array as="points">
              <mxPoint x="650" y="1120" />
              <mxPoint x="280" y="1120" />
            </Array>
          </mxGeometry>
        </mxCell>
        <mxCell id="LOVSOSI9yWZroj-ZfK8c-105" value="Continuar?" style="ellipse;whiteSpace=wrap;html=1;verticalAlign=top;align=center;fillColor=#330033;" vertex="1" parent="1">
          <mxGeometry x="590" y="1040" width="120" height="40" as="geometry" />
        </mxCell>
      </root>
    </mxGraphModel>
  </diagram>
</mxfile>
